<?xml version="1.0" standalone="no"?>
<!DOCTYPE svg PUBLIC "-//W3C//DTD SVG 20010904//EN"
 "http://www.w3.org/TR/2001/REC-SVG-20010904/DTD/svg10.dtd">
<svg version="1.0" xmlns="http://www.w3.org/2000/svg"
 width="700.000000pt" height="700.000000pt" viewBox="0 0 700.000000 700.000000"
 preserveAspectRatio="xMidYMid meet">
<metadata>
Created by potrace 1.11, written by Peter Selinger 2001-2013
</metadata>
<g transform="translate(0.000000,700.000000) scale(0.100000,-0.100000)"
fill="#000000" stroke="none">
<path d="M3479 6981 c-15 -16 -265 -251 -329 -311 -19 -18 -102 -96 -184 -174
-82 -77 -193 -181 -245 -231 -52 -49 -114 -108 -137 -130 -22 -22 -68 -65
-102 -97 -33 -31 -58 -59 -54 -63 4 -4 2 -6 -3 -5 -6 1 -304 2 -662 1 l-653
-1 0 -613 0 -614 -142 -134 c-79 -74 -180 -170 -227 -214 -46 -44 -99 -93
-116 -110 -18 -16 -70 -66 -115 -109 l-83 -80 1 -2035 c0 -1120 1 -2042 1
-2048 1 -10 622 -13 3071 -13 2917 0 3070 1 3071 18 0 9 1 931 1 2049 l1 2032
-34 32 c-19 17 -68 63 -109 103 -42 39 -145 137 -230 217 -85 80 -190 179
-232 219 l-78 73 0 616 0 616 -652 0 -652 0 -35 33 c-20 19 -97 91 -171 161
-74 71 -153 145 -175 165 -22 21 -72 68 -110 104 -296 280 -386 365 -425 402
-25 23 -70 65 -100 94 -68 65 -71 67 -91 47z"/>
</g>
</svg>
